<svg width="113" height="113" viewBox="0 0 113 113" fill="none" xmlns="http://www.w3.org/2000/svg">
<rect width="113" height="113" rx="56.5" fill="white"/>
<path d="M27.4699 57.8493C27.4699 57.8493 17.9795 44.6281 18 38.2313C18.0063 38.1545 18.0296 38.08 18.0684 38.013C18.1073 37.946 18.1606 37.8881 18.2247 37.8434C18.2888 37.7986 18.3622 37.7682 18.4397 37.754C18.5171 37.7399 18.5968 37.7426 18.6731 37.7617L35.4552 41.078C35.4552 41.078 43.5565 31.2571 55.0867 29.2692L59.5309 13.1428C59.541 13.0831 59.5667 13.0269 59.6055 12.9797C59.6443 12.9325 59.6948 12.8959 59.7523 12.8733C59.8098 12.8507 59.8723 12.843 59.9337 12.8508C59.9951 12.8587 60.0534 12.8818 60.103 12.9181C61.896 14.4127 69.0774 20.7236 73.9068 29.9105C73.9068 29.9105 89.3315 35.2092 87.6376 51.7064C87.6376 51.7064 86.0465 66.8461 71.0256 74.9714C71.0256 74.9714 56.2927 84.8782 40.8006 79.236C40.7913 79.2415 25.5367 73.9756 27.4699 57.8493Z" stroke="#AA33FF" stroke-width="5" stroke-miterlimit="10"/>
<path d="M41.5596 97.1529V35.834H81.963V40.5134C81.9633 41.443 81.7761 42.3635 81.4122 43.2224C81.0483 44.0813 80.5148 44.8617 79.8421 45.519C79.1695 46.1764 78.3709 46.6977 77.4921 47.0534C76.6132 47.409 75.6712 47.5919 74.72 47.5917H54.2845V61.2039H79.7269V66.9247C79.7269 68.5238 79.0769 70.0574 77.9198 71.1882C76.7627 72.319 75.1934 72.9542 73.557 72.9542H54.4565V89.8936C54.4565 91.8179 53.6743 93.6634 52.282 95.0241C50.8896 96.3848 49.0012 97.1492 47.0321 97.1492L41.5596 97.1529Z" fill="black"/>
<path d="M84.878 97.5604C89.3697 97.5604 93.011 94.0019 93.011 89.6123C93.011 85.2227 89.3697 81.6642 84.878 81.6642C80.3862 81.6642 76.7449 85.2227 76.7449 89.6123C76.7449 94.0019 80.3862 97.5604 84.878 97.5604Z" fill="#AA33FF"/>
</svg>
