<svg width="24" height="28" viewBox="0 0 24 28" fill="none" xmlns="http://www.w3.org/2000/svg">
<path d="M13.859 0.421008L22.1644 0.411743L8.23019 14.5095L4.59866 18.165L0.466797 13.9773L13.859 0.421008ZM13.7817 13.0087C13.8895 12.8645 14.0878 12.9356 14.2383 12.917L22.1573 12.9191L14.94 20.2176L10.7868 16.0392L13.7817 13.0087Z" fill="#44D1FD"/>
<path d="M6.64673 20.2248L10.7867 16.0392L14.9399 20.2176L14.9572 20.2362L10.7877 24.4176L6.64673 20.2248Z" fill="#1FBCFD"/>
<path d="M10.7878 24.4176L14.9573 20.2361L22.1604 27.5347C19.4472 27.5409 16.735 27.5326 14.0228 27.5388C13.8682 27.5738 13.7726 27.4307 13.6739 27.3422L10.7878 24.4176Z" fill="#08589C"/>
</svg>
