<svg width="113" height="113" viewBox="0 0 113 113" fill="none" xmlns="http://www.w3.org/2000/svg">
<circle cx="56.5" cy="56.5" r="56.5" fill="#AA33FF"/>
<g clip-path="url(#clip0_255_107)">
<path d="M82.856 49.5231C83.2733 49.1914 83.894 49.5017 83.894 50.026V71.9091C83.894 74.7448 81.5933 77.0454 78.7576 77.0454H34.2424C31.4067 77.0454 29.1061 74.7448 29.1061 71.9091V50.0367C29.1061 49.5017 29.716 49.2021 30.1441 49.5338C32.541 51.3957 35.7191 53.7606 46.6339 61.6899C48.8918 63.3378 52.7013 66.8048 56.5 66.7834C60.3202 66.8155 64.2046 63.2736 66.3768 61.6899C77.2916 53.7606 80.459 51.385 82.856 49.5231ZM56.5 63.3485C58.9826 63.3913 62.5566 60.2239 64.3544 58.9184C78.5543 48.6135 79.6351 47.7147 82.9095 45.1465C83.5301 44.6649 83.894 43.9159 83.894 43.124V41.0909C83.894 38.2552 81.5933 35.9545 78.7576 35.9545H34.2424C31.4067 35.9545 29.1061 38.2552 29.1061 41.0909V43.124C29.1061 43.9159 29.4699 44.6542 30.0905 45.1465C33.365 47.704 34.4458 48.6135 48.6457 58.9184C50.4434 60.2239 54.0174 63.3913 56.5 63.3485Z" fill="white"/>
</g>
<defs>
<clipPath id="clip0_255_107">
<rect width="54.7879" height="54.7879" fill="white" transform="translate(29.1061 29.106)"/>
</clipPath>
</defs>
</svg>
